<svg xmlns="http://www.w3.org/2000/svg" enable-background="new 0 0 500 500" viewBox="0 0 500 500"><path fill="#333" d="M369.94,440.801c-0.044-0.495-4.472-50.029-11.376-99.004c-2.138-15.16-4.156-29.478-12.281-40.285
		c-8.293-11.029-21.896-17.303-44.103-20.342c-8.722-1.199-15.684,6.257-23.456,17.811c-1.043,1.549-2.129,3.227-3.252,5.019
		h-59.256c-1.215-1.962-2.381-3.794-3.488-5.476c-8.067-12.255-14.283-19.192-22.299-18.373
		c-22.664,2.313-35.793,7.571-43.898,17.582c-7.812,9.648-9.484,21.944-11.602,37.512c-0.333,2.442-0.68,4.998-1.068,7.669
		c-6.031,41.528-12.707,97.024-12.773,97.58c-0.658,5.483,3.253,10.462,8.736,11.121c0.405,0.049,0.807,0.072,1.205,0.072
		c4.99,0,9.307-3.731,9.916-8.809c0.066-0.553,6.712-55.803,12.709-97.09c0.396-2.734,0.753-5.35,1.093-7.849
		c1.763-12.959,3.036-22.324,7.328-27.625c2.799-3.457,8.46-7.656,27.299-9.933c8.452,8.925,30.891,50.224,48.117,85.98
		c1.668,3.463,5.172,5.64,9.008,5.64c0.044,0,0.087,0,0.131,0c3.887,0,7.393-2.33,8.988-5.874c0.091-0.2,9.098-20.151,19.802-40.988
		c16.326-31.782,24.01-41.141,26.693-43.771c31.221,4.743,32.539,14.083,36.646,43.222c6.831,48.45,11.216,97.491,11.258,97.98
		c0.489,5.501,5.342,9.552,10.847,9.077C366.365,451.158,370.429,446.302,369.94,440.801z"/><path fill="#6590E5" d="M330.783 200.803l-31.577-31.577-9.788 11.426 25.551 25.551-18.166 18.164-24.145-24.145-9.789 11.427 28.536 28.535c8.021 8.02 40.638 19.291 50.442 22.555.776.259 1.575.384 2.367.384 1.958 0 3.874-.768 5.303-2.196l2.009-2.007c2.008-2.008 2.71-4.978 1.812-7.672C350.075 241.441 338.805 208.824 330.783 200.803zM304.152 231.16l17.608-17.607c3.336 5.367 8.612 17.992 13.335 30.942C322.147 239.774 309.522 234.498 304.152 231.16zM356.772 80.133c.051-4.936-1.822-9.556-5.277-13.012l-1.135-1.134c-3.401-3.401-7.955-5.274-12.817-5.274-4.88 0-9.463 1.871-12.925 5.272l-66.912 61.74-59.272-59.272c-4.991-4.992-11.627-7.741-18.686-7.741-7.059 0-13.695 2.749-18.687 7.741l-2.007 2.008c-10.303 10.304-10.303 27.068.001 37.371l57.689 57.689-19.061 17.587c-.073.067-.146.138-.217.208-2.477 2.477-3.972 5.512-4.428 8.864-1.076-.144-2.173-.244-3.303-.244-4.901 0-12.185 1.563-19.028 9.011-6.781 7.375-9.541 15.405-11.976 22.49-3.529 10.268-6.078 17.686-19.161 23.271-2.29.977-3.945 3.028-4.42 5.474-.472 2.445.299 4.966 2.061 6.727 4.901 4.903 17.097 6.65 26.875 6.65l0 0c12.044 0 34.852-2.604 52.284-20.038 5.109-5.108 7.802-11.35 7.787-18.048-.002-1.002-.082-1.982-.194-2.951 3.912-.191 7.448-1.746 10.263-4.559.07-.071.14-.144.208-.218L351.502 92.867C354.853 89.456 356.724 84.941 356.772 80.133zM169.661 97.225c-4.454-4.454-4.454-11.703.001-16.158l2.006-2.008c2.159-2.158 5.028-3.347 8.08-3.347 3.052 0 5.92 1.188 8.079 3.348l11.52 11.52-18.165 18.166L169.661 97.225zM188.252 115.816l18.166-18.166 40.256 40.257-18.895 17.435L188.252 115.816zM205.766 234.915c-13.611 13.612-31.954 15.645-41.678 15.645-1.148 0-2.245-.028-3.29-.078 6.879-6.917 9.609-14.859 12.12-22.169 2.147-6.247 4.176-12.148 8.834-17.215 2.573-2.801 5.187-4.161 7.985-4.161 4.884 0 9.931 3.944 11.92 5.885.194.205.371.385.493.507l.159.159C203.741 214.943 214.367 226.314 205.766 234.915zM340.777 82.38c-.071.071-.143.144-.211.218L223.543 209.432c-.142.13-.193.13-.393.13-2.226 0-6.39-2.875-8.386-4.833l-1.784-1.784c-.004-.004-.01-.01-.013-.014-.129-.136-.333-.345-.57-.582-1.992-2.121-4.52-5.934-4.521-7.982 0-.19 0-.233.118-.361L334.888 76.919c.074-.068.147-.139.219-.21.867-.867 1.898-.996 2.437-.996.497 0 1.443.114 2.215.885l1.133 1.132c.78.781.888 1.744.884 2.249C341.769 80.509 341.632 81.526 340.777 82.38z"/></svg>